<?xml version="1.0" encoding="utf-8"?>
<!-- Generator: Adobe Illustrator 24.2.0, SVG Export Plug-In . SVG Version: 6.00 Build 0)  -->
<svg version="1.1" id="Capa_1" xmlns="http://www.w3.org/2000/svg" xmlns:xlink="http://www.w3.org/1999/xlink" x="0px" y="0px"
	 viewBox="0 0 1318 801" style="enable-background:new 0 0 1318 801;" xml:space="preserve">
<style type="text/css">
	.st0{fill-rule:evenodd;clip-rule:evenodd;fill:url(#SVGID_1_);}
	.st1{fill-rule:evenodd;clip-rule:evenodd;fill:url(#SVGID_2_);}
	.st2{fill:none;stroke:url(#SVGID_3_);stroke-width:17;}
	.st3{opacity:0.558;fill-rule:evenodd;clip-rule:evenodd;fill:url(#SVGID_4_);enable-background:new    ;}
	.st4{opacity:0.503;fill-rule:evenodd;clip-rule:evenodd;fill:url(#SVGID_5_);enable-background:new    ;}
	.st5{opacity:0.558;fill-rule:evenodd;clip-rule:evenodd;fill:url(#SVGID_6_);enable-background:new    ;}
	.st6{opacity:0.558;fill-rule:evenodd;clip-rule:evenodd;fill:url(#SVGID_7_);enable-background:new    ;}
	.st7{opacity:0.387;fill-rule:evenodd;clip-rule:evenodd;fill:url(#SVGID_8_);enable-background:new    ;}
	.st8{opacity:0.211;fill-rule:evenodd;clip-rule:evenodd;fill:url(#SVGID_9_);enable-background:new    ;}
	.st9{fill-rule:evenodd;clip-rule:evenodd;fill:url(#SVGID_10_);}
	.st10{fill-rule:evenodd;clip-rule:evenodd;fill:url(#SVGID_11_);}
	.st11{opacity:0.503;fill-rule:evenodd;clip-rule:evenodd;fill:url(#SVGID_12_);enable-background:new    ;}
</style>
<g>
	
		<linearGradient id="SVGID_1_" gradientUnits="userSpaceOnUse" x1="360.9975" y1="821.7445" x2="362.4279" y2="819.8637" gradientTransform="matrix(-834.817 0 0 -532.83 302564.75 437373.7188)">
		<stop  offset="0" style="stop-color:#FF52C1"/>
		<stop  offset="4.090000e-02" style="stop-color:#F952C5"/>
		<stop  offset="1" style="stop-color:#9952FF;stop-opacity:0"/>
	</linearGradient>
	<path class="st0" d="M834.8,0H425.6L0,376v156.8L834.8,0z"/>
	
		<linearGradient id="SVGID_2_" gradientUnits="userSpaceOnUse" x1="360.7365" y1="822.1832" x2="362.3549" y2="819.9641" gradientTransform="matrix(-1057.3 0 0 434 383103.625 -355486.1563)">
		<stop  offset="0" style="stop-color:#FF52C1"/>
		<stop  offset="4.090000e-02" style="stop-color:#F952C5"/>
		<stop  offset="1" style="stop-color:#9952FF;stop-opacity:0"/>
	</linearGradient>
	<path class="st1" d="M1057.3,801l-641.2-0.1L0,494.7V367L1057.3,801z"/>
	
		<linearGradient id="SVGID_3_" gradientUnits="userSpaceOnUse" x1="358.2909" y1="819.5427" x2="357.042" y2="821.208" gradientTransform="matrix(98 0 0 -98 -34362 80940.1953)">
		<stop  offset="0" style="stop-color:#FF52C1"/>
		<stop  offset="1" style="stop-color:#9952FF"/>
	</linearGradient>
	<circle class="st2" cx="704" cy="563" r="49"/>
	
		<linearGradient id="SVGID_4_" gradientUnits="userSpaceOnUse" x1="354.8259" y1="813.6747" x2="356.0677" y2="812.2689" gradientTransform="matrix(26.8701 26.8701 26.8701 -26.8701 -30288.5762 13018.2646)">
		<stop  offset="0" style="stop-color:#FF52C1"/>
		<stop  offset="1" style="stop-color:#9952FF"/>
	</linearGradient>
	<path class="st3" d="M1110,684.1l22.6,22.6c1.2,1.2,1.2,3.1,0,4.2l-22.6,22.6c-1.2,1.2-3.1,1.2-4.2,0l-22.6-22.6
		c-1.2-1.2-1.2-3.1,0-4.2l22.6-22.6C1106.9,682.9,1108.8,682.9,1110,684.1z"/>
	
		<linearGradient id="SVGID_5_" gradientUnits="userSpaceOnUse" x1="355.1508" y1="814.8862" x2="356.3926" y2="813.4804" gradientTransform="matrix(39.598 39.598 39.598 -39.598 -45159.8477 18253.7051)">
		<stop  offset="0" style="stop-color:#FF52C1"/>
		<stop  offset="1" style="stop-color:#9952FF"/>
	</linearGradient>
	<path class="st4" d="M1171.6,41l35.4,35.4c1.2,1.2,1.2,3.1,0,4.2l-35.4,35.4c-1.2,1.2-3.1,1.2-4.2,0L1132,80.6
		c-1.2-1.2-1.2-3.1,0-4.2l35.4-35.4C1168.5,39.8,1170.4,39.8,1171.6,41z"/>
	
		<linearGradient id="SVGID_6_" gradientUnits="userSpaceOnUse" x1="353.6396" y1="812.3419" x2="354.8814" y2="810.9361" gradientTransform="matrix(22.6274 22.6274 22.6274 -22.6274 -25447.4844 10426.1172)">
		<stop  offset="0" style="stop-color:#FF52C1"/>
		<stop  offset="1" style="stop-color:#9952FF"/>
	</linearGradient>
	<path class="st5" d="M936.7,43.1l18.4,18.4c1.2,1.2,1.2,3.1,0,4.2l-18.4,18.4c-1.2,1.2-3.1,1.2-4.2,0l-18.4-18.4
		c-1.2-1.2-1.2-3.1,0-4.2l18.4-18.4C933.7,41.9,935.6,41.9,936.7,43.1z"/>
	
		<linearGradient id="SVGID_7_" gradientUnits="userSpaceOnUse" x1="353.6396" y1="812.3419" x2="354.8814" y2="810.9361" gradientTransform="matrix(22.6274 22.6274 22.6274 -22.6274 -25678.4844 10549.1172)">
		<stop  offset="0" style="stop-color:#FF52C1"/>
		<stop  offset="1" style="stop-color:#9952FF"/>
	</linearGradient>
	<path class="st6" d="M705.7,166.1l18.4,18.4c1.2,1.2,1.2,3.1,0,4.2l-18.4,18.4c-1.2,1.2-3.1,1.2-4.2,0l-18.4-18.4
		c-1.2-1.2-1.2-3.1,0-4.2l18.4-18.4C702.7,164.9,704.6,164.9,705.7,166.1z"/>
	
		<linearGradient id="SVGID_8_" gradientUnits="userSpaceOnUse" x1="347.0105" y1="804.8939" x2="348.2523" y2="803.4881" gradientTransform="matrix(12.0208 12.0208 12.0208 -12.0208 -12609.2588 6101.2505)">
		<stop  offset="0" style="stop-color:#FF52C1"/>
		<stop  offset="1" style="stop-color:#9952FF"/>
	</linearGradient>
	<path class="st7" d="M1237.7,594.7l10.6,10.6c0.4,0.4,0.4,1,0,1.4l-10.6,10.6c-0.4,0.4-1,0.4-1.4,0l-10.6-10.6
		c-0.4-0.4-0.4-1,0-1.4l10.6-10.6C1236.7,594.3,1237.3,594.3,1237.7,594.7z"/>
	
		<linearGradient id="SVGID_9_" gradientUnits="userSpaceOnUse" x1="356.5115" y1="815.9338" x2="357.3653" y2="814.7249" gradientTransform="matrix(37.4767 37.4767 37.4767 -37.4767 -43835.8008 17921.1328)">
		<stop  offset="0" style="stop-color:#FF52C1"/>
		<stop  offset="1" style="stop-color:#9952FF"/>
	</linearGradient>
	<path class="st8" d="M96.5,737.4l11.7-11.7c2-2,5.1-2,7.1,0c2,2,2,5.1,0,7.1l-11.7,11.7l11.7,11.7c2,2,2,5.1,0,7.1
		c-2,2-5.1,2-7.1,0l-11.7-11.7l-11.7,11.7c-2,2-5.1,2-7.1,0c-2-2-2-5.1,0-7.1l11.7-11.7l-11.7-11.7c-2-2-2-5.1,0-7.1
		c2-2,5.1-2,7.1,0L96.5,737.4z"/>
</g>
<linearGradient id="SVGID_10_" gradientUnits="userSpaceOnUse" x1="361.0005" y1="821.7445" x2="362.4309" y2="819.8637" gradientTransform="matrix(834.817 0 0 -532.83 -301249.3125 437373.7188)">
	<stop  offset="0" style="stop-color:#FF52C1"/>
	<stop  offset="4.090000e-02" style="stop-color:#F952C5"/>
	<stop  offset="1" style="stop-color:#9952FF;stop-opacity:0"/>
</linearGradient>
<path class="st9" d="M1318,532.8V376L892.4,0L483.1,0L1318,532.8z"/>
<linearGradient id="SVGID_11_" gradientUnits="userSpaceOnUse" x1="360.7388" y1="822.1832" x2="362.3573" y2="819.9641" gradientTransform="matrix(1057.3 0 0 434 -381788.1875 -355486.1563)">
	<stop  offset="0" style="stop-color:#FF52C1"/>
	<stop  offset="4.090000e-02" style="stop-color:#F952C5"/>
	<stop  offset="1" style="stop-color:#9952FF;stop-opacity:0"/>
</linearGradient>
<path class="st10" d="M1318,367v127.7L901.8,800.9L260.7,801L1318,367z"/>
<linearGradient id="SVGID_12_" gradientUnits="userSpaceOnUse" x1="341.672" y1="801.4289" x2="342.9138" y2="800.0231" gradientTransform="matrix(39.598 39.598 39.598 -39.598 -45159.8477 18253.7051)">
	<stop  offset="0" style="stop-color:#FF52C1"/>
	<stop  offset="1" style="stop-color:#9952FF"/>
</linearGradient>
<path class="st11" d="M104.9,40.1l35.4,35.4c1.2,1.2,1.2,3.1,0,4.2l-35.4,35.4c-1.2,1.2-3.1,1.2-4.2,0L65.3,79.7
	c-1.2-1.2-1.2-3.1,0-4.2l35.4-35.4C101.9,38.9,103.8,38.9,104.9,40.1z"/>
</svg>
