<?xml version="1.0" encoding="utf-8"?>
<!-- Generator: Adobe Illustrator 24.2.0, SVG Export Plug-In . SVG Version: 6.00 Build 0)  -->
<svg version="1.1" id="OBJECTS" xmlns="http://www.w3.org/2000/svg" xmlns:xlink="http://www.w3.org/1999/xlink" x="0px" y="0px"
	 viewBox="0 0 15800 12500" style="enable-background:new 0 0 15800 12500;" xml:space="preserve">
<style type="text/css">
	.st0{fill:#FFEED9;}
	.st1{fill:#D4DBE0;}
	.st2{fill:#FCE9F3;}
	.st3{fill:#ECF7FD;}
	.st4{fill:#E9EFC6;}
	.st5{fill:#CBE2F3;}
	.st6{fill:#E8F5FB;}
	.st7{fill:#E2DEF0;}
	.st8{fill:#F5FBFD;}
	.st9{fill:#E2EED6;}
	.st10{fill:#FFF9C5;}
	.st11{fill:#F5F2EA;}
	.st12{fill:#D2D6D1;}
	.st13{fill:#DEDDD4;}
	.st14{fill:#D4EDF9;}
	.st15{fill:#F2E7F3;}
	.st16{fill:#E2DFCF;}
	.st17{fill:#CDE8ED;}
</style>
<g>
	<path class="st0" d="M15348.6,11.8c-133.4,34.7-272.3,53.9-412.3,69.6c-385.7,43.3-761.6-12.4-1137.8-68.6c-2.4-0.4-4.8-0.7-7.1-1
		h-912.2c-84.4,16.9-168.3,39.7-251.5,69.3c-243.9,86.9-442.1,222.3-638.9,360.6c-198.1,139.2-397.2,278-604.2,409
		c-163.1,103.3-346.6,179.1-560.9,201.9c-144.2,15.3-278.4-11.3-409.9-48.8c-128.6-36.7-256.1-76.7-380.5-121.3
		c-399.1-143.1-794.3-118-1188.8,10.2c-312.6,101.6-583.8,254.9-849.5,415.1c-13.2,8-27,15.4-49.1,14.8
		c99.5-72.2,199.1-144.3,298.4-216.5c295.7-215.2,590.4-429.9,804.5-703.5c108.7-138.9,226.2-189.2,431.4-228.3
		c-103.3-17-247.6,9.1-347.7,75.4c-69.7,46.2-137.2,98.6-187.5,157.7C8595,819,8146.3,1160.1,7671.4,1479.1
		c-672.6,451.8-1359.3,890.9-2039,1336.3c-392.4,257.1-770.9,528.1-1177.2,770.9C3943,3892.4,3392,4153.5,2784.1,4331.4
		c-149.3,43.7-306.1,71.9-459.4,107.2l-6.8-17.3c81.6-22.4,164.1-42.8,244.5-67.6c348.9-107.3,669.4-252.7,954.7-443.2
		c299-199.6,467.9-462.5,589.7-748.5c45.7-107.2,95.4-214,153.9-317.2c185.8-327.9,507.5-533.4,963.6-566.1
		c697.7-50,1269.7-292.9,1786.8-641.7c402-271.2,801.3-544.3,1153.4-856.1c254.5-225.5,439-482.6,555-769.1H8062
		c-39.2,97.6-74.4,196.5-127.2,289.3c-131.1,230.4-343.7,413.8-586.8,576c-445.1,296.9-915.5,564-1458.6,743.9
		c-335.8,111.2-688.6,163.9-1049.3,196.3c-177,15.9-356.3,39.1-525.5,81.2c-385.8,96.1-615.9,320.1-728.2,613.3
		c-72.9,190.3-111.9,388.8-161.2,584.4c-57.5,227.8-124.1,453.5-328.3,632.7c-93,81.6-205.8,149.5-317.6,214.6
		c83.6-90.1,175.8-176.1,249-271.1c145.4-188.6,194.8-401.5,240.1-615.9c41.9-198.6,79.2-400,154.5-591.5
		c171.7-436.6,559.2-689.5,1138.6-761.7c294-36.6,590.7-64.9,880.2-117c493.3-88.8,924.3-285.6,1331.3-513.7
		c190.4-106.7,374.2-221.9,550.1-342.9c283-194.7,483.8-430.7,571.7-717.7h-703C7137.1,139,7047.3,252.3,6944.1,359
		c-380.2,393.3-899.8,550.1-1515.7,532.4c-295.2-8.5-590.1-42.2-884.6-38.6c-467,5.8-848.6,161.1-1109.3,468.8
		c-103.9,122.7-197.2,255.9-259,394.2c-120.5,269.7-216.3,546.2-320.5,820.4c-109.9,289.2-234.7,572.9-459.9,822.8
		c-353.9,392.8-844.6,597.9-1449.3,647.8c-330,27.2-652-4.9-971-58.2v152.6c137.5,41.8,274.7,84.1,407.5,133.5
		c244.8,91,476.7,203.1,721.2,294.6c461.5,172.8,933.6,181.2,1398.9,12.6c300.6-108.9,597.7-226.3,883.7-356.8
		c611.5-279.2,1239-526.6,1920.2-687.6c444.8-105.1,829.2-295.9,1147.5-561.2c194.8-162.4,382.2-330.4,565-501.2
		c384-358.7,796.4-692.6,1282-970.1c568.6-324.9,1176.9-424.6,1850.9-234.5c289.8,81.7,582.5,157.8,876.3,230.6
		c199.4,49.4,404.6,84.3,615.4,51.4c270.8-42.2,458.5-180,613.4-346.7c120.7-129.9,226-268.5,343-400.6
		c219.9-248.4,501-433.4,885.6-506.8c254.4-48.5,512.6-44.8,771.7-34.7c396.4,15.5,792.3,19.4,1175.3-81.4
		c130.9-34.5,261.6-70.2,376.3-130.3H15348.6z"/>
	<path class="st1" d="M15356,3235.7c-159.6,110.3-304.3,234.1-451.9,354.8c-255.9,209.3-556.6,358-919.7,424.5
		c-261.5,47.9-527.7,51-794.6,55.4c-181.5,3-364.8,8.9-543.4,31.9c-424.8,54.6-741,248.7-994,509.5
		c-183.2,188.9-351.2,386.8-533.5,576.2c-335.3,348.2-741.9,631-1255.6,811.4c-647.4,227.3-1315.9,243.9-1987.1,91.2
		c-426.3-97-842.7-222.4-1258.8-345.1c-807-237.9-1712.1-80.6-2253.7,429.1c-122.9,115.7-256.3,224.9-390.5,332.7
		c-144.2,115.8-322.5,151.6-523.1,114.4c-135.8-25.2-270.8-53-405.5-81.4c-209-44.1-398-12.9-565.1,92.7
		c-79.9,50.5-157.6,104-228.9,161.7c-266.7,216-558.2,408.8-868.3,585.4c-324.5,184.9-649.1,371.2-1028.8,481.2
		c-123.1,35.7-250.8,61.7-378.9,86.9V8376c200.9-23.8,392.9-75.4,579.6-142.4c389.4-139.6,710-353.6,1019.5-579.6
		c154.3-112.6,310.5-223.7,468.9-332.8c297-204.4,638.3-271,1029.9-216.4c192.9,26.9,394.4,36.9,589.7,26.9
		c234.7-12,441.3-103.6,615.6-222.5c288.1-196.5,558.6-408.6,845.3-606.5c161.3-111.3,331.3-218.2,513.3-307.3
		c226.6-111.1,484.9-144.3,754.1-118.2c-48.2,5.4-96.7,9.7-144.5,16.5c-351.4,49.9-638.7,188.8-847.1,410.9
		c-174,185.5-324.6,384.9-475.7,582.7c-88.5,115.9-129.2,247.7-145,382.3c-30.1,256.3-247.5,379.6-568.7,386.9
		c-132.7,3-268.5-12.8-399.3-33.8c-197.9-31.6-392.7-75.2-585.5-127.9c119.4,16.2,238.7,32.8,358.1,48.5
		c201.3,26.6,402.7,44.4,605.3,6.6c193.1-36,318.7-125.6,380.4-275.1c54.7-132.7,120.7-262.6,176.9-383.5c4.5-3.2-7.6,4-17.7,12.6
		c-88.9,76.1-175.7,153.9-266.5,228.6c-218.3,179.8-492.9,218.7-792.7,186.4c-182.7-19.7-364-48.2-547-65.7
		c-314-30.2-608.8,25.2-865,165.8c-254.2,139.6-493.6,296-735.3,449.1c-341.5,216.2-691.7,420.5-1109.6,540.5
		c-142.7,41-288.2,70.9-437,88.6v503.4c517.8,131.1,1000.3,61,1437.2-214.1c194.4-122.4,370-264,546-403.2
		c217-171.6,419.7-354.3,639.1-524c277.1-214.4,610.4-299.3,1000-238.2c250.4,39.3,501.2,80.9,754.4,105.1
		c595.9,57,1040.2-170.3,1220.1-615c78-192.7,199.5-363.3,396.8-496.7c363.4-245.8,795.8-304.9,1253.6-258.4
		c281.3,28.6,559.4,82.1,835.2,135.8c513.2,100,1017,100.1,1515.3-52.2c659.9-201.7,1190.3-535.1,1615.3-972.5
		c220-226.4,419.1-465.2,637.2-692.7c331.4-345.7,768.9-536.9,1331.7-538.7c179.3-0.6,359.2-6.4,537.7-19
		c464.3-32.8,878.1-162.2,1207.8-424.9c162.1-129.2,303.4-274.5,451.7-414c134.4-126.4,284.4-236.2,472.3-308v-30.5
		C15651.1,3077.3,15492.2,3141.6,15356,3235.7z"/>
	<path class="st2" d="M12730.4,2390.6c513.6-73.3,912.7-290.9,1227.1-608.7c145.2-146.7,274.8-302.8,419.9-449.5
		c283-286.3,645.2-478.9,1108.4-538.1c112-14.3,225.9-19.7,340.6-25.5V462.3c-160.4,12.1-316.8,22.9-471.8,41
		c-501.1,58.8-964.2,193.2-1367.1,439.8c-228.8,140.1-405,318.6-585.9,493.5c-166.2,160.8-337.5,317.7-553.9,439.9
		c-250,141.1-526.7,212.3-834.3,171.2c-162.6-21.7-324.6-57.2-478.9-102.8c-345-101.9-681.8-220.8-1027.9-320.3
		c-535.3-153.9-1079.1-189.3-1625.6-30.6c-459.8,133.6-841.7,357.3-1138.7,657.3c-236.6,239-448.2,494.4-652,751.7
		c-358,452.1-845.4,753.3-1526.9,841.4c-685.2,88.5-1316.7,285-1917.9,553.5c-294.4,131.5-602.3,246.5-913.1,353.1
		c-303.2,103.9-626.8,127.4-954.7,83.3c-295.2-39.7-562.5-136.9-817.5-255.3c-315.3-146.4-634.7-284.8-985.4-367v437.2
		c65.5-18,131.4-34.4,198.7-45.9c279.4-47.5,548.1-2.4,811.2,78.3c229.5,70.5,463.4,132,714.1,202.8
		c-184.2-32.7-350.8-63.8-518.4-91.7c-200.3-33.4-399.8-74.8-602.6-93.2c-210.3-19.1-411.6,14.8-603.1,79.1v425.6
		c90-31.1,183-56.6,281.8-72.2c303.3-48,610-46.6,915.6-35.4c474.4,17.2,925.6-51.5,1352.2-208.9
		c404.8-149.3,804.6-307.1,1202.4-467.7c431-174,879.4-261.4,1366.5-204.3c331.3,38.8,663.3,74.8,995.8,106.5
		c381.6,36.4,728.9-17.3,985-265c75.7-73.3,147.4-152.4,198.7-237.1c113.8-187.8,213.7-380.7,318.9-571.6
		c212-384.8,485.6-736.6,897.2-1013.2c476.4-320.1,1016.9-469.5,1647.8-370.4c318.4,50,610.9,154.1,898.9,267.3
		c334.1,131.3,663.9,270.3,1004.6,390.1c332.6,117,684.9,163.1,1051,110.3c339.1-48.8,629.1-176,890.4-344.6
		c266.6-172,521-355.7,789.8-525.5c307.3-194.1,656.1-288.9,1055-234.7V900.3c-363.3-20-694.2,52-989.8,226.6
		c-242,143-414.6,333.6-586.8,524.1c-171.4,189.6-358.7,367.5-593.9,511.6c-442,270.8-931,398.4-1493.7,295.1
		c-344.3-63.2-660.6-180.7-969.7-311.5c-18.1-7.7-34.7-17.5-70.2-35.7c213.2,67.4,403,133.4,598.1,187.8
		C12046.9,2389.4,12382.3,2440.3,12730.4,2390.6z"/>
	<path class="st3" d="M15565.5,3893.4c-344.9,394.7-802.6,662.3-1407,762.9c-260.2,43.3-521.5,84.5-784.2,116.8
		c-521.5,64-953.8,249.2-1277.4,574.8c-166.2,167.2-314.1,346.1-461.3,524.2c-191.6,231.8-356.4,478.4-564.9,700.2
		c-375.7,399.6-897.2,606.5-1530.1,645c-343.4,20.8-663.4-44.8-977.1-144.8c-192.4-61.4-384.8-125.6-583.6-171.3
		c-371.3-85.4-699.1-24.7-961.3,209.1c-78.3,69.8-155.9,140.3-238.4,207c-694,561.1-1515.7,853.9-2532.9,730.2
		c-487.5-59.3-882.9,59.7-1165.2,377.4c-147.1,165.5-269.7,344.1-407.3,514.9c-133.3,165.4-255.8,338.1-411.3,490
		c-230.3,224.8-543.2,308.6-911.1,265c-270.9-32.1-526.6-102.5-777.6-183.7c-201.1-65.1-400.6-133.4-600.2-201.5v224.5
		c93.9,37.7,187.8,75.5,281.7,113.2c-2.6,3.8-5.2,7.7-7.8,11.5c-91.3-30.3-182.6-60.6-274-90.9v452.6
		c195-29.5,392.7-17.2,586.7,27.5c259.2,59.7,508.6,145.2,762.3,219.4c98.3,28.7,196.6,57.5,290.7,97.6
		c-142.4-33.7-284.3-69-427.5-100.6c-202.4-44.6-403.7-94.5-609.4-127.2c-206.6-32.8-408.1-18.2-602.8,31.7v621.1
		c98-55.1,197.1-108.4,302.7-152.4c356.1-148.2,749.2-154.2,1142.5-147.8c276.9,4.5,555.5,20.3,830.5,3
		c537.7-33.8,1003.3-269.9,1146-747.4c52.7-176.2,107.9-352.2,170.5-526.4c88.5-246.3,293.2-409.6,603.8-491
		c72.4-19,144.9-38.4,218.9-52.8c921.1-178.6,1711.9-537.9,2389.1-1053.3c192.8-146.8,376-301.4,569.3-447.8
		c235.4-178.3,508.9-222.5,815.6-124.3c238.8,76.5,476.4,155.4,716.6,229.2c405.5,124.5,824.1,156.4,1251.2,88.2
		c623.9-99.5,1099.5-371.7,1459.4-776.4c188.3-211.7,305.8-450.4,438.3-683.7c228-401.4,581.2-703.8,1135.1-827.1
		c236.9-52.7,484.3-85.6,729.9-103.4c573.6-41.6,1051.8-224.7,1444-551.1c189.3-157.5,335.2-339.2,488.1-517.3v-300
		C15736.5,3702.3,15649.7,3797.2,15565.5,3893.4z"/>
	<path class="st4" d="M9874.8,8523.8c-36-35.6-76.2-68.5-113.9-103c-85.8-78.4-174.5-155-256.3-235.8
		c-282.1-278.9-577.2-548-929.1-775.8c-125.3-81.1-203.7-91.5-344.9-28.2c-72.1,32.3-138.4,75.8-197.2,122.1
		c-125.3,98.8-197.2,223.2-249.7,354.1c-87.5,218.1-247,397.5-485.1,528.1c-196.1,107.5-397.9,210.7-607.9,300.4
		c-442.1,188.6-873.8,388.1-1217.3,681.2c-229.8,196.1-451.2,398.9-664.1,606.5c-363.6,354.5-823.3,581.5-1395.8,661.3
		c-332.1,46.3-667.9,76.4-1000.2,121.7c-482.1,65.8-930,198.2-1314.7,442.3c-273.4,173.4-485.6,389.4-689.4,611
		c-135.1,146.9-273.6,291.4-434.5,420.4v269.9H9.1c127-67.3,243.9-144.9,345.9-235.1c202.5-179.2,403.5-360.5,586.9-551.7
		c439.9-458.7,1002.8-767.9,1723.4-889.9c429.9-72.8,862.9-134.2,1293.5-204.7c320-52.4,636.1-116.5,932.6-229
		c368.9-140,636.3-370.1,893-610.1c250.7-234.5,507.5-464.1,810.7-659.8c447.2-288.6,968.5-454.3,1521.5-568.3
		c234.2-48.3,473.7-83,703.6-141.1c295.9-74.8,376.1-343.4,169.8-526.9c-52.4-46.6-111.7-53.7-173.4-12.9
		c-37.5,24.8-68.7,56.9-95.6,89.4c-43,51.8-77.5,107.9-119.9,160c-133.7,164.3-340.8,256.6-557.6,339.9
		c2.5-11.4,14.1-14.9,23.7-20.4c187.1-108.7,317.9-250.4,407-417.9c35.3-66.4,71.9-133.3,119.1-194.6
		c101.4-131.6,226.2-142.2,368-34.2c152.7,116.2,254.8,256.5,311.9,416.6c12.7,35.6,21.7,72.3,27.7,109
		c25.9,157.5-45.7,253.4-252.1,304c-175.5,43-357,71.9-537.1,102.2c-728.7,122.6-1355.3,383.6-1846.7,828.1
		c-239.9,217-477.4,435.7-713.9,655c-226.4,209.9-493.1,372.7-839.6,441.2c-158.2,31.3-317.9,59.4-478.7,81.2
		c-472.5,64.2-947.9,116.1-1418.3,188.4c-854.5,131.2-1583,434.9-2151.9,964.7c-231.4,215.4-487.8,414.4-738.6,617.1h377.6
		c178.3-146,355.4-292.9,530.5-441.3c285.6-242.1,587.6-468.7,955-635.3c592.6-268.7,1243.1-393.3,1914.8-455.8
		c387.6-36.1,778.4-50.4,1167.6-76.4c462.3-30.9,846.5-178.3,1129.9-471.1c92.3-95.3,181.9-192.4,268.4-291
		c195.5-223,392.2-445.2,635.7-638.9c311.6-248,669-438.8,1114.9-497.4c254.1-33.4,514-40.2,771.5-57.5
		c202.7-13.7,405.6-26.5,592.3-97.7C9986.8,8759.4,10015,8662.6,9874.8,8523.8z"/>
	<path class="st2" d="M8899.2,2713.5c-181.2,184.5-287.7,396.6-370.2,617.4c-90.7,242.9-166.1,490.1-315.5,717.1
		c-217.9,331.2-534.9,575.7-1000.7,685c-373.3,87.6-742.3,51.1-1105.5-38.9c-286.2-70.9-566.5-157.2-855-221.3
		c-582.5-129.6-1100.8-50.1-1525.1,310.2c-117.8,100.1-246.3,192.7-374,285.4c-371,269.3-810.3,421.2-1315,449.5
		c-321.1,18-643.4,22.2-964.8,37.2c-441.7,20.6-764.6,182.5-946.7,502.6c-53.7,94.5-94,193.9-152.2,286.4v972.9
		c345.9-37.4,557.3-192.7,638-470.9c18.6-64.1,29.5-129.9,38.2-195.4c44.2-331.7,252.8-574.8,634.8-725.8
		c219.2-86.7,456.3-127.1,695.4-158.9c500.5-66.6,960-206.8,1356.6-458.2c239.7-151.9,480-304.3,706.5-467.8
		c392.9-283.7,824.5-354.5,1317.8-181.5c233.1,81.7,467.9,161.1,706.1,233.2c344.3,104.2,698.9,162.6,1068.7,98
		c459.6-80.2,807.3-293.1,1092.3-576.2c244-242.3,385.9-522.5,489.8-816.6c91.9-260.2,186.7-519.6,378.9-749
		c224.7-268.3,518-465.5,925.4-542.7c87.8-16.6,178.2-25.1,279-38.9C9742.1,2215,9225.9,2380.9,8899.2,2713.5z"/>
	<path class="st5" d="M2181.5,11.8c-42.4,8.7-84.7,17.7-126.7,27.6C1552.1,157.6,1171.2,407.5,856.2,726
		C675.5,908.7,500,1094.5,319.7,1277.5c-99.2,100.7-213.4,187.2-345,256.3v352c78.2-14.2,155.3-30.4,228.2-54.4
		c307.9-101.2,532.9-285.6,723.6-494.1c186.8-204.4,356.2-418.5,547-620.4c315.1-333.4,736.2-524.5,1274.4-539
		c255.7-6.9,512.5,1.2,767.4-12.9c241-13.3,483-36,719-75.2c93.3-15.5,182.5-46.1,271.3-78H2181.5z"/>
	<path class="st6" d="M2239.1,5825c-208.2,33.7-416.7,73.2-616.9,128.3c-319.7,87.9-540.4,260-632.9,520.3
		c-28.8,81.1-51,164.2-65.7,247.6c-77.6,438.6-450.4,678.4-948.8,738v344.8c344.2-51.3,666.5-147,954.7-310.6
		c370.8-210.5,585.7-499.7,706.2-840.4c40.3-113.9,96.1-228,171.4-330c173-234.1,448.6-375.6,771.6-454.5
		c274.5-67,484.6-194.1,656.2-368.2c26.9-27.3,54.2-54.4,81.3-81.6C2990.2,5613.5,2641.9,5759.9,2239.1,5825z"/>
	<path class="st1" d="M2537.9,764.5c-209.1,166-364.4,362.2-524.8,556.4c-170.1,205.8-337.6,414.1-528.5,607.9
		c-221,224.3-509.6,380.2-872.9,440c-213.9,35.2-425.7,31.4-636.9,9v359.9c457,31.3,886.9-37.1,1278.8-247.2
		c343.2-183.9,570.4-442.4,761-723.6c164-241.9,313.7-490,486-728.1c172.7-238.6,407-435.8,724.5-564.2c7.7-3.1,16.5-4.5,24.8-6.7
		C2959.2,498.3,2733.2,609.4,2537.9,764.5z"/>
	<path class="st4" d="M11967.8,11.8c-212.9,241.8-460.4,457.9-779.3,619.9c-242.5,123.2-502.8,198.6-799.2,168.4
		c-206.6-21-380-103.6-554.4-185.9c16.4,3.8,33.8,6,49.2,11.6c498,181.6,948.2,101.2,1367.6-151.2
		c212.1-127.7,375.5-287.4,514.9-462.8H11360c-106.6,149.3-250.6,274.7-428.2,376.1c-310.7,177.3-648.7,238.6-1022.5,135.7
		c-109-30-220.2-57.1-332.9-76.8c-200.6-35.2-350.3,25-424,164c44.4-7.6,87.1-16.9,130.7-22c230-27,436.4,33,638.5,107.9
		c152.2,56.4,302.4,116.6,457.1,168.6c304,102,597.4,79.5,874.4-60.8c83.9-42.5,168-86.4,242.6-138.1
		c312.8-216.7,622.7-436,933.3-654.6H11967.8z"/>
	<path class="st7" d="M838.1,11.8C741.9,89.6,645.4,167.2,551,246.3C358.3,407.8,166.7,570.1-25.3,732v400.2
		C133.6,1024.7,277.5,904.6,418,781.8c327.4-286.1,645.4-580.6,1080.1-769.9H838.1z"/>
	<path class="st2" d="M2331.9,1964.2c-143.8,219.6-266.7,449.7-436.1,656.5c-445.4,544-1153.5,817.2-1921.1,766.4v226.8
		c162.5,12.5,325.8,9,489.2-9.1c560.7-62.3,978.9-298.6,1291.4-657.4c270.6-310.7,438.8-660,607.6-1008.6
		c5.4-11.1,8.5-22.8,12.6-34.2C2355.4,1923.1,2345,1944.2,2331.9,1964.2z"/>
	<path class="st7" d="M1870.1,2280.2c-6.6,6.4-13.1,12.9-19.4,19.5c-445.4,471.6-1051.6,665.8-1789,631.8
		c-29.1-1.3-58.1-3.3-87.1-5.6v251.8c42.5,1.8,84.9,2.5,127.2,0.9c731.2-27.5,1299-279.2,1692.4-764.6c18.3-22.6,33.8-46.5,50.2-70
		c14.6-21,28.7-42.3,43-63.4C1874.3,2277.8,1871.7,2278.7,1870.1,2280.2z"/>
	<path class="st8" d="M-25.3,447.6C147.1,302.4,319.6,157.1,492,11.8H5.5C-4.7,21.2-15,30.5-25.3,39.9V447.6z"/>
	<path class="st6" d="M5213.4,11.8c-66.1,44.9-132,89.9-205.3,125.7c-106.1,51.8-223.5,92.4-341.6,125.5
		c-112.3,31.5-232,46.9-348.5,69.4c193.5-1.3,387-4.7,575.6-30.3c303.6-41.1,575.5-139.1,812.2-290.4H5213.4z"/>
	<path class="st0" d="M1584.2,10756.2c-10.5,0-21.2,0.4-31.5,1.9c-522.8,75.5-965.5,264.5-1293.2,592.8
		c-102,102.2-194.4,210.3-284.7,319.6v74.8c52.3-62.1,104.3-124.3,155.5-186.9C363,11273.9,665.7,11049,1060,10908
		c172.6-61.7,357-103.4,526.3-151.5C1594,10758.3,1589.1,10756.2,1584.2,10756.2z"/>
	<path class="st2" d="M10780.2,11.8c-153.1,125.7-338.6,212.8-578.8,247.1c265.2,34.2,534.1-64.7,705.3-247.1H10780.2z"/>
	<path class="st4" d="M6263.1,11.8c-170.3,163.8-383.5,282.5-636.9,354.3c-135.5,38.4-276.2,65.8-436.8,103.3
		c339.9-35.8,640.5-105.6,890.1-268.2c85.2-55.5,157.3-123.3,231.1-189.4H6263.1z"/>
	<path class="st9" d="M1444.7,12500c325.4-472.6,800.9-824.8,1436.7-1044.8c280.4-97,573.8-159.8,877.3-189.9
		c-881.9,218.4-1617.1,573.8-2047.5,1234.7h449.1c88.5-158.7,209.2-302.4,365-427.4c563.6-452.3,1265.8-655.8,2059.2-683.2
		c339.9-11.8,669.4,60.6,1002.2,102.9c390.1,49.6,781.3,76.4,1173.4,18c409.2-60.9,728.1-215.3,871.7-539.1
		c43.9-99.1,80.9-200.1,119.3-300.6c255.2-667.1,992.2-1061.4,1880.3-1002.2c116.9,7.8,232.3,29.5,348.3,44.8
		c-115.1,2.5-227.5-9.2-340.3-11.6c-710.4-14.8-1326.4,287.1-1593.6,789.8c-73.3,137.9-117.7,285.7-166.2,430.8
		c-94,281.6-268.5,514.8-635.9,618.2c-166.7,46.9-345.5,75.7-521.9,91.9c-421.7,38.8-836.6-20.1-1249.7-78.2
		c-410.2-57.7-821.2-89.9-1235.1-30.7c-542.5,77.7-1023.9,252.5-1416.9,561.2c-153.5,120.6-272.2,257.9-356.7,415.3h475.2
		c103.9-206.8,284.5-369.3,522.6-497c492.5-264.2,1041.1-349.5,1627.1-299.3c361.7,31,721.1,78.1,1082.8,108.7
		c403.9,34.2,807.1,24.1,1203.2-54.9c396.9-79.2,701.2-244.6,830.5-564.4c28.5-70.5,54.6-142.5,69-215.4
		c65.9-335.1,244.3-623.3,560.8-858.8c468.9-348.9,997.2-471,1616.3-270.8c192.3,62.2,386.5,120.8,580.6,179.6
		c291.6,88.4,591.9,150.8,904.5,168.7c389.6,22.2,744.6-69.6,1082.5-211.6c306.4-128.9,608.6-264,919.2-386.3
		c445.9-175.5,916.1-294.6,1415.9-331.2c153.1-11.2,306.8-18.3,472.6-26.5v-59.3c-26.2-0.7-52.6-1.1-78.7-2.5
		c-713.2-39.9-1407.6,24.4-2068.1,246.3c-396.9,133.3-785.4,281.8-1178.7,421.9c-505.8,180.2-1029.3,230-1564.3,99.4
		c-280.8-68.6-552.9-160-826.3-246.3c-400.9-126.6-812.1-204.1-1248.1-183.5c-463.4,21.9-852.7,159-1117.9,463.9
		c-120.5,138.5-215.8,292.1-305.1,445.1c-87.2,149.5-145.7,309-228.3,460.3c-151.1,276.5-433.8,402.3-809.7,416.1
		c-285.5,10.5-562.1-30.6-837.1-82.8c-315.4-59.8-631.2-118-957.4-128.4c-375.5-12-741.6,35.4-1102.2,111.8
		c-895,189.5-1681.9,516.8-2268.5,1096.1c-66.3,65.4-131,131.9-198.3,201.2H1444.7z"/>
	<path class="st7" d="M3786.7,12500c123.2-185.3,319.7-313.3,572.7-395.9c315.7-103.1,646.8-115.9,980.4-90.3
		c343.8,26.4,685.8,66.8,1029.1,97c329.1,28.9,657.9,31.1,986.4-13.1c486.2-65.4,926.3-220.9,1343.1-418.8
		c402.5-191.1,742.9-417.3,911.2-789c113.2-250,375.8-332,690.9-273.4c241.7,45,458.7,132.1,676.6,220
		c236.4,95.3,470.4,195.5,713.4,279.7c461,159.7,904.9,136.1,1312.4-109.4c86.7-52.3,161-117.2,241-176.3c-6-4.8-12.1-9.5-18.1-14.3
		c-11.4,7.8-23,15.5-34,23.5c-234.9,170.5-510.2,253.9-827.3,198.8c-209.4-36.3-416.1-90.8-614.3-155.4
		c-298.9-97.5-586.1-216.6-884-316.1c-334.4-111.7-683.1-159-1043.1-83.7c-395.6,82.8-666.9,262.7-746.7,592.7
		c-22.3,92.2-61.5,183.3-107,270.4c-61,116.9-159.6,214.2-293.9,294c-2.2-11.5-5.2-16.5-3.2-18.4
		c159.2-150.5,206.3-330.6,222.1-518.2c22.9-271.1,158.5-491.6,455.6-645.4c277.8-143.8,582.2-185.5,907.2-154.9
		c324,30.5,617.6,133.5,913.5,232.9c319.2,107.3,636.8,220.4,965.3,307.1c415.8,109.7,808.5,58,1147.3-172.6
		c72.6-49.4,135.2-107.7,202.4-161.9c5.8,2.4,11.6,4.9,17.4,7.3c-71.3,107-127.5,222.4-216.7,319.4
		c-297.4,323.5-692,516.8-1218.6,500.5c-229.7-7.1-444.6-68.7-644.8-155.4c-186.7-80.9-368.3-169.1-552.5-253.7
		c-179.9-82.7-361.8-163-571.7-189.2c-53.5-6.7-109.4-1-164.3-1c342.8,137.7,608.3,347.6,901.5,528.5
		c105.3,65,216.3,125.4,331,179.9c274.8,130.6,565,158.4,872.7,73.8c279.1-76.7,539.6-183.2,769.3-325.1
		c376.6-232.7,740.6-477.8,1106-721.3c224.9-149.9,437.1-311.5,664.8-458.6c266.3-172,576.7-253.9,925.1-235.3
		c40.3,2.2,80.5,5.8,121.3,9.8V9544c-638.9,4.4-1226.6,140.6-1736.9,455.3c-194,119.6-364.9,262.4-543.4,396.9
		c-243.7,183.7-531.1,278-871.5,272.8c-265.2-4.1-515.9-59.3-760.9-131.3c-397-116.6-789.3-243.6-1189-354.2
		c-381.4-105.6-774.4-148.5-1173.6-58.6c-499.4,112.5-856.8,339.2-970.7,755.1c-29.8,108.7-55.3,218.1-85,326.8
		c-92,336.2-348.9,548.5-775.7,639.6c-339.3,72.4-685,108.7-1033.6,90.3c-394.2-20.8-786.7-62.4-1179.4-98.5
		c-315.7-29.1-630.9-48-946.6-5.2c-325,44.1-624.5,134.9-877.3,305.9c-149.9,101.5-259.9,223.2-343.6,361.2H3786.7z"/>
	<path class="st2" d="M15826.3,2183.6c-710.3-16.6-1309.9,175.5-1785.2,602.6c-110.9,99.6-219.1,201.1-329.8,300.8
		c-178.9,161-409.9,231.1-678.4,240.2c-267.2,9.1-525-30.8-781-82.8c-377.4-76.6-751.1-167.7-1143.9-185.2
		c-386.6-17.2-732.4,53.7-974.3,308.9c-85.3,90-160,191.5-207.8,296.6c-78.2,172-138.1,349.8-191.8,527.8
		c-134.1,444.4-401.5,822.1-875.9,1099.5c-462.7,270.6-976.2,397.8-1553.4,310.7c-225.6-34-444.8-93.8-666.9-141.8
		c-1.9,2.2-3.9,4.4-5.8,6.6c198.5,65.3,392.9,140.3,596.3,194.4c1033.1,274.7,2015.9-47.9,2589.9-590.6
		c197.7-186.9,320.9-405.5,436.1-627.5c122.9-236.8,245.3-474,442.7-681.2c182.2-191.3,402.4-347.2,719.2-367.6
		c211.3-13.6,427.5-2.6,639.3,14.1c309.4,24.4,615.8,73.5,925.4,94.5c563.9,38.3,1077.2-61.6,1487.8-386.7
		c146.3-115.8,279.8-241.6,417.2-364.1c180.1-160.7,390.8-284.7,664.9-324.7c89.9-13.1,181.6-19.2,275.7-25.4V2183.6z
		 M10176.3,4062.2c-83.7,231.7-164.7,464.2-315.9,676.5c-258.8,363.4-649.7,605-1141.7,752.6c-4.3,1.3-10-0.5-24.8-1.4
		c14.4-7.7,22.3-13.2,31.5-16.7c617.7-235.5,1021.1-611.8,1213.4-1126.9c63.4-169.7,120.7-341,190.5-509.1
		c106-255.5,279.3-474.6,585.3-615.1c13.6-6.2,27.2-12.5,41.4-17.7c3.5-1.3,9.4,1.3,20.5,3.3
		C10413.2,3424.3,10292,3742.1,10176.3,4062.2z"/>
	<path class="st10" d="M15826.3,3169c-62.9,37.8-122.8,75-173.4,118.7c-132.4,114.4-251.3,238.7-370.7,361.8
		c-292.7,301.8-665,514.1-1142.2,591.6c-275,44.6-556.9,72.9-837.3,84.8c-529.2,22.3-970.1,173-1291.2,506.5
		c-215.6,223.9-413.3,458.2-620.2,687.2c-347,384-748,726-1258.7,981.9C9754.4,6691,9346,6799.3,8891.3,6779
		c-291.9-13-570.8-75.7-848.8-140.7c-382.9-89.6-769.9-162-1174-142.1c-321.3,15.9-597.5,109.2-814,301.2
		c-144.5,128.2-224.6,282.3-301.5,438.4c-110.2,223.7-307.1,384.6-592.1,470.8c-160.6,48.6-330.7,78.1-496.5,116.2
		c180.6-4.4,365-6.1,545.2-28.5c434.7-54.1,851.5-157.6,1191.4-383.6c201.4-133.9,372.1-296.8,550-451.3
		c191.6-166.4,424.5-236.1,708.2-210.4c238.2,21.6,461.2,82.9,682.5,150.5c211.8,64.7,427.4,119.4,656.7,128.9
		c484.3,20.2,912.9-102.2,1304.9-315.2c351.1-190.8,630.3-437.7,887.7-701c288.3-294.9,568.4-594.9,864.5-884.8
		c283.6-277.7,642.7-477.1,1091.6-559.4c253.8-46.5,512.5-76.9,768.6-116.2c364.8-56.1,713.9-143,1022.1-313.6
		c254.4-140.8,444.5-326.5,623.9-521.7c84.7-92.2,169.5-185.6,264.5-271.1V3169z"/>
	<path class="st11" d="M9402.8,7909.5c-48.3-30.5-96.5-61.1-144.8-91.6c1.8-2.8,3.6-5.6,5.4-8.4c60.7,19.4,120.9,39.9,182.1,58.1
		c780.6,231.9,1568.3,261.6,2359.6,38.4c333.7-94.1,637.3-229.2,863.4-452.2c170.9-168.6,235.9-369.5,297.8-572.9
		c40.7-133.9,78.4-270.5,145.2-397c211.1-399.3,575.8-669.3,1131.9-747.7c409-57.7,796,5.2,1171.2,185.2
		c-65.9,10.6-113.3,15.2-158.3,26c-677.1,163.3-1108.6,511.6-1292.3,1047.3c-40.9,119.2-79,239.6-133.7,355
		c-137.7,290.6-397.2,501.4-734.8,657.3c-407.4,188.1-850.4,296.7-1314.8,353.9c-498.8,61.4-994.1,48.7-1483-57.5
		c-328.7-71.4-614.6-203.9-875.3-372.6c-9.4-6.1-15.1-15.6-22.5-23.5c56.9,25.1,112,53.3,171,74.9
		c973.9,356.2,1950.7,325.3,2925.1,4.5c325.5-107.2,611.3-260.9,813.9-494.5c147.9-170.5,215.4-365.4,273.1-562.5
		c105-358.4,312.1-670,688.8-898.9c130.1-79,279.3-138.8,406.3-200.9c-269.5,37.8-518.5,138-735.1,290.2
		c-314.9,221.4-492.4,501.2-564.6,823.1c-100.6,448.8-428.9,753.1-948.6,946.3c-485.8,180.5-997.7,263.6-1532,261.7
		c-486.8-1.7-960.1-63.1-1403.7-230c-34.1-12.8-68.2-25.7-110.3-41.4C9393.5,7894.9,9398.1,7902.2,9402.8,7909.5z"/>
	<path class="st12" d="M8370.9,7273c-282.6,0.5-451.6,121.1-582,278c-68,81.8-122.7,174.1-158.7,267.5
		c-90.7,234.8-270.8,413.6-530.9,542.8c-652.8,324.5-1334.1,597-2105.1,710.8c-396.9,58.6-671.7,244.8-831.8,534.2
		c-57.5,103.9-112.1,208.8-170.9,312.2c-230.7,406.5-642,606.6-1199.6,638.7c-60.3,3.5-120.6,7.8-183.6,4.4
		c13.5-4.7,26.6-10.6,40.6-14c514.2-124.3,800.4-406.9,918.7-806.6c46.8-158.2,87.3-317.9,143.6-474
		c78.3-217.2,256.5-366.3,535.6-434.6c246.3-60.2,497.5-109.4,740-177.5c589.7-165.6,1114.7-422.2,1594.1-733.6
		c247.2-160.6,472.5-341.6,711.3-510.2c123-86.9,247.8-173.5,382.6-248.3c170.9-94.9,349.1-91.8,519.3,10.5
		C8246.1,7204.7,8300.5,7233.5,8370.9,7273z"/>
	<path class="st7" d="M14042.2,12500c122.4-134.9,243.9-270.7,382.7-394.7c270.8-241.9,601.4-419.2,1011.3-490.4
		c74.5-12.9,150.6-22.6,226.6-27.4c54.2-3.4,108.8-2.3,163.4-1.5v-7.7c-310-41.8-613-19.4-909.9,64.7
		c-382.3,108.2-697.7,295.7-996.9,504.4c-147.5,102.9-296.8,205.5-456,296.6c-36.4,20.8-73.4,39.4-110.9,56H14042.2z"/>
	<path class="st7" d="M4593.7,12500c251.2-143.1,549.8-197.3,864.4-222.6c373.3-30,744.1-3.5,1113.7,32.5
		c529.3,51.6,1042,16.2,1534.5-153.4c265.1-91.2,528.4-186.9,799.4-266.2c322.4-94.3,656.2-133.9,1002.6-85.2
		c334.2,46.9,608.4,178.9,860.7,347.1c174.1,116.1,349,231.5,523,347.8h1013.5c-281.5-83.3-541.1-200.9-785.9-340.3
		c-247.3-140.8-482.1-295-727.3-438.2c-293.8-171.6-622-244.2-990.7-200.9c-244.5,28.8-479.4,82.3-704.4,158.6
		c-336,114-666.1,238.7-1001.3,354.2c-455.9,157.1-932.2,241.3-1432.2,207c-328.2-22.5-654.2-63.1-981.8-91.4
		c-325.2-28-647.9-19.2-964.2,55.2c-223.3,52.5-394.5,150.2-520.9,295.8H4593.7z"/>
	<path class="st3" d="M6308.9,5279.4c108,10.9,198.4,20.7,288.9,29c1215,111.3,2094.3-410.4,2510.2-1126.6
		c124.7-214.7,206-444.8,309-667.3c102.9-222.4,238.3-430.5,434.8-613.1c388.2-360.7,869.5-494.6,1449.7-346.7
		c314.8,80.3,618,188.3,926.5,283.7c117.6,36.3,233.7,76.1,353.4,107.4c396.9,103.9,586.2,100.1,965.5-9.6
		c-130.4,91-282,150-453.2,179c-324.8,55-641.1,10.8-953.5-56.3c-309.9-66.5-615.6-145.2-926.7-208
		c-350.2-70.6-686-48.8-984.4,132.2c-308.1,186.9-487.3,439.7-607.8,722.5c-86.5,203.1-155.7,411.5-259.2,609.1
		c-284.6,543.2-778.4,916.9-1514.2,1069.2c-510.7,105.7-1014.9,64.8-1504.8-87.5C6336.4,5294.5,6330.7,5290.5,6308.9,5279.4z"/>
	<path class="st0" d="M15826.3,6189.5c-5.8,1.4-11.5,2.9-17.1,4.6c-385.7,113.2-684.9,311.6-920.9,572.5
		c-155.9,172.3-232.8,372.9-337.7,563.8c-53.1,96.7-121.6,188.2-183.1,282c61.5-194,125.2-384,191.5-573.5
		c83.8-239.3,252.8-437.7,484.1-605.1c205.2-148.5,438.4-260.9,716.5-330.8c-143-75.7-262.2-147.4-449.1-82.5
		c-523.3,181.7-888.5,472.9-1074.9,896.7c-45.3,102.9-75.5,209.9-113.9,314.7c-116,316.8-308.3,595.5-656.2,795.4
		c-262,150.6-555,253.2-861.5,332.8c-674.2,175.1-1360,226.5-2058.3,102.8c-152.5-27-300.8-68.5-459.4-105.3
		c28.4,13.1,49.6,23.6,71.7,32.9c210.6,87.9,435.3,145.4,667.5,185.6c667.6,115.7,1326.2,73.9,1979.3-69.5
		c573.2-125.8,1077.4-340.8,1485.4-686c256.4-217,453-465,640.3-719.1c223-302.6,495.2-566.7,895.9-728.9V6189.5z"/>
	<path class="st4" d="M6926.3,5789.1c-167.7-57.8-334.5-117.2-503.1-173.3C5673.1,5366.6,5000,5487,4391,5883.8
		c-139.3,90.8-259.3,199.5-388,300.2c-61.6,48.2-121.9,97.4-184.3,144.9c-156.9,119.4-339.9,158.5-552.8,110.7
		c-98.8-22.2-198.9-40.9-299-58.9c-263.6-47.3-481.1,18.2-649.8,177.1c-117.7,110.9-217.8,233.1-333.8,345.2
		c-87.6,84.7-187.6,161.6-283.1,241.3c-16.5,13.8-38.4,23.6-51.8,31.6c102.9-209,198.5-421.8,311.9-628.6
		c125.7-229.4,323.7-407.2,652.5-463.7c99.5-17.1,204-20.9,306.4-21.7c158.3-1.2,280.2-42.4,358.3-156.3
		c68.1-99.3,177.8-169.8,302.1-222c400.7-168.2,814.1-313.5,1262.6-385.4c384.2-61.7,759.2-25.5,1113.5,101.8
		c330,118.5,651.6,251.5,976.9,378.1C6930.4,5781.7,6928.4,5785.4,6926.3,5789.1z"/>
	<path class="st6" d="M15826.3,9970.7c-339.2-61.4-660.2-29.7-939.5,161.1c-162.6,111.1-311.6,234.5-464.9,353.9
		c-409.2,318.8-873.3,585.6-1336.1,852.6c-223.9,129.2-460.8,248.7-707.5,348.8c-363.5,147.5-731.2,124.6-1073.9-52.2
		c-153.7-79.3-295.9-172.3-441.1-261.3c-178.5-109.4-349.9-226.4-533.9-329.6c-87.8-49.2-195.1-80.6-298.7-108.3
		c-81.3-21.7-162.5-6-219.5,52.8c-98.7,101.9-197.6,203.7-295.8,304.9c38-16,76.2-31.7,113.4-48.7c252.9-116,509-121.8,768.4-14.4
		c62.9,26,126.3,51.6,186.3,81.4c193.6,96.3,384.7,195.7,578.6,291.6c650.5,321.7,1306.4,335.7,1952.7,0
		c291.6-151.5,567.1-322.6,843.3-491.3c299.2-182.8,582.7-381.9,917.2-526.7c200.8-86.9,412-156,646.7-135.8
		c101.1,8.7,200.9,27.9,304.4,47.6V9970.7z"/>
	<path class="st12" d="M11122,2448.9c-82.3-13.7-158.5-28.5-235.7-38.9c-426.7-57.9-775.5,65.6-1081,286.8
		c-296.6,214.8-481.3,482.1-595.6,781.8c-99.2,260.1-179.7,525.6-349.1,766c-317.1,450.1-755.7,793.6-1401,942.9
		c-521.9,120.8-1044,95.3-1558.4-35.3c-298.1-75.6-591.4-163.1-891.4-233.8c-257.6-60.7-522.6-83.8-787.8-20.4
		c-59.2,14.1-116.4,33.1-176.8,44.8c245.4-161.7,516.3-265.9,849.8-236.8c306.2,26.7,583.5,123.7,864.6,211.7
		c252.3,78.9,506.7,150.5,778.1,180.8c512.6,57.4,965.5-49.9,1371.6-293.8c488.6-293.4,783.4-681.7,936.6-1144.3
		c59.8-180.7,128.1-362.5,225.1-532.4c204.9-359.1,530.8-626.7,1025.9-747.8c347.2-84.9,682.8-42.9,1013.6,54.9
		C11113.7,2436.1,11115.2,2440.7,11122,2448.9z"/>
	<path class="st5" d="M15826.3,6534.6c-184.6,93.1-346.9,207-479.4,344c-152.5,157.6-299.4,319.4-434,486.7
		c-831.5,1032.7-2408.3,1466.1-3547.4,1374c-639.8-51.7-1215.3-213.2-1692.7-560.2c-118.9-86.4-238-172.6-357-258.9
		c-3.4,2-6.7,4-10.1,6.1c4.3,6.2,7.4,13.2,13.2,18.4c102.3,91.6,202.6,184.7,307.8,274.2c241.8,205.5,514.2,379.2,851.4,481.6
		c609.6,185.1,1235.4,234.8,1879.5,137.4c663.8-100.4,1277.7-292.9,1829.8-600c403.2-224.2,718.1-514,1001-827.8
		c190.2-211.1,384.8-419.6,638-587.1V6534.6z"/>
	<path class="st8" d="M15826.3,4142c-64.1,78.6-126.4,155-188.6,231.3c-333.7,408.9-798.1,661.4-1414.5,752.9
		c-351.1,52.1-698.7,125.4-1040.3,208.3c-533.8,129.5-928.2,383.4-1097.4,817.2c-39.1,100.1-81.6,199.4-122.5,299.1
		c58.1-51.9,100.8-108.2,144-164.4c264.7-343.7,625.9-598.1,1129.6-700.5c289.8-58.9,589.1-90.3,885-129.6
		c480-63.8,899.6-213.4,1228.1-503.6c187.9-166,333.8-353.1,476.5-542V4142z"/>
	<path class="st10" d="M15826.3,7035c-211.8,154.7-378.8,339.3-546.4,523.3c-224.4,246.3-466.2,480.1-774.3,666.8
		c-639.5,387.4-1365.3,619.2-2160.4,719.5c-417.3,52.6-837,51.1-1250.9-24c-222.7-40.4-441.4-94.5-662.7-140
		c-93.2-19.1-177.8,0.1-228,66.3c-120.6,159-310.8,208.8-530,212.1c-229.6,3.4-459.5-0.3-689.1,3.2c-154.3,2.3-308.5,11.8-462.7,18
		c11.1,13.9,21.4,14.8,31.8,15c379.9,7.6,759.8,14.8,1139.7,22.6c285,5.9,572.3,22.2,843.8-66.3c169.3-55.1,341.3-59,520.1-48.3
		c283.8,17,569.5,44.7,852.4,34.7c650.1-22.9,1274.8-150.8,1883.3-327c635.2-183.9,1193.3-454.1,1611.6-881.3
		c138.4-141.4,281-280.3,421.8-420.2V7035z"/>
	<path class="st13" d="M7474.2,5803.1c176.3,18.5,373.5,53.2,571.8,57.6c630.8,14,1165.8-177.2,1635.2-494.4
		c314.6-212.6,519.1-484.8,687.6-776.9c132.2-229.2,266.4-458,473.1-654.7c257.2-244.9,593.3-368.6,992-398.4
		c341.5-25.5,679.7,6.3,1018.7,31.7c183.7,13.8,368.6,18,531.5,25.5c-345.1,9.3-712,16-1078.5,30.1
		c-269.6,10.4-534.5,44.4-782.6,135.4c-274.1,100.6-466.9,267.2-611.1,469c-140,195.9-262.3,399.6-404.3,594.6
		c-374.2,514.1-923.9,861.6-1650.2,1031.9C8363.2,5970.5,7875.3,5931,7474.2,5803.1z"/>
	<path class="st3" d="M15826.3,10691.9c-168.6-31.6-339.3-41.6-514-15.8c-276.2,40.8-517.9,141.4-738.6,270.2
		c-342.4,199.8-673.6,411.3-1014.7,612.5c-297.2,175.2-604.3,339-973.6,415.1c93.2-11.9,187.1-21.3,279.5-36.2
		c488.8-78.9,920.8-254.8,1326.1-476.1c246.3-134.5,489.3-273.2,742.6-399.3c236.6-117.8,499.6-163.6,780.2-120.4
		c37.5,5.8,74.7,12.9,112.5,20.5V10691.9z"/>
	<path class="st4" d="M8525,12259.7c386.8-56.1,773.4-82.9,1163.7-19.5c295.2,48,564.5,140,818.3,259.8h501.3
		c-172.5-105.9-405.6-234-545-296.8c-526.5-237.4-1081.5-295.6-1660.8-147.7c-372.1,95-737.4,206.5-1103.1,309.9
		c28-1.6,61.4-1.5,93.8-5.8C8037.2,12326.9,8281.5,12295,8525,12259.7z"/>
	<path class="st10" d="M15826.3,7720.7c-67.4,77.3-134.6,154.7-207.9,228.4c-127.6,128.1-253.1,260-402.3,371.8
		c-254.9,191.1-574.9,303.3-899.9,403.2c-154.3,47.4-312.3,87.4-468.7,130.8c1.6,5.9,3.2,11.9,4.8,17.8
		c345.6-53.3,694.8-95.5,1035.8-162.9c371.1-73.3,690.8-217.2,938.2-441.6V7720.7z"/>
	<path class="st14" d="M14805.9,3444.6c-191.3,127.7-391.8,237.4-619.5,314.9c-284.6,96.9-586.4,128.4-892.6,149.8
		c-270.1,18.8-543.3,33.6-807.1,78.9c-430.5,73.8-762.7,279.8-1051.4,532.9c-259.9,227.8-513.7,460.7-788,677.6
		c-315.2,249.2-678.6,451.3-1090.3,596c-20.5,7.2-41.6,13.3-57.3,18.3c164.1-82.1,336.3-160.8,498.2-250.7
		c348.5-193.6,616.3-449.3,873.3-712.3c206.8-211.6,414.4-422.6,675.2-597.2c376.6-252.3,817.1-377.8,1307.3-407.1
		c289.4-17.3,580.4-25.6,867.6-55.6c369-38.5,703.4-155,1010-319.7c19.5-10.5,39.6-20.3,59.6-30.1
		C14792,3439.3,14795.1,3441.1,14805.9,3444.6z"/>
	<path class="st5" d="M15826.3,8950.9c-258.1,60.3-521.5,69.9-785.3,75.2c-682.2,13.6-1337.3,127.9-1975.9,312.2
		c-321.2,92.7-645.5,179.7-972.8,258c-417.1,99.8-844.4,146.6-1281.8,106.6c-83.3-7.6-166.4-17.2-249.6-25.8
		c516.8,132.4,1040,155.4,1557.8,29.7c411.7-100,814.4-223,1218.1-342.1c430.7-127,868.4-226.9,1329-260.5
		c386.6-28.2,772.2-21.5,1160.5,2.9V8950.9z"/>
	<path class="st7" d="M14628.9,12500c306-327.4,691.6-576.2,1197.3-701.5v-124.2c-644.2,17.5-1249.1,400.8-1594.3,825.8H14628.9z"/>
	<path class="st15" d="M15826.3,12500v-522.1c-338.4,124.7-615.9,298.8-852.5,522.1H15826.3z"/>
	<path class="st16" d="M9729,12500c-271.1-51.7-549.5-67.5-832.9-40.3c-122.8,11.8-245.3,25.5-367.6,40.3H9729z"/>
	<path class="st17" d="M15826.3,2588.9c-309.2,3.5-567.9,97.9-779.5,284.9c-212.9,188.2-423.5,379.1-698.1,517.3
		c4.1,4.6,8.3,9.3,12.4,13.9c106.3-54.4,214.5-106.7,318.5-163.7c357.5-195.8,707.3-403.5,1146.7-470.1V2588.9z"/>
	<path class="st3" d="M10640.8,7961.4c264.7-14.7,520.6-60,768.6-133.5c520.1-154,868.3-439,1064.7-843.6
		c95.2-196.1,192.1-392.2,304.9-582.2c127.9-215.5,321.4-391.3,587.3-513.3c21.2-9.7,43.7-17.8,69.5-22.1
		c-204,107.8-371.4,241.7-506.7,401.5c-178.4,210.8-272.5,449.2-373.1,685.4c-91.7,215.3-210.2,418.3-420.4,580.7
		c-287.8,222.4-643.2,339.5-1034,396.7c-152,22.3-307.1,31.5-460.8,46.6C10640.8,7972.2,10640.8,7966.8,10640.8,7961.4z"/>
	<path class="st4" d="M15826.3,5549.4c-230,107.6-479.1,151.3-744.1,162.5c136.7,30.1,273.7,55.4,411.4,78.5
		c113.2,18.9,224.1,14.6,332.7-10.3V5549.4z"/>
	<path class="st13" d="M15826.3,5154.4c-204.6,205.7-467.2,353.4-785.5,450c19.5-2.7,39.3-4.4,58.4-8.3
		c272.3-55.9,507.7-162.7,724.8-302.4c0.8-0.5,1.5-1,2.2-1.5V5154.4z"/>
	<path class="st2" d="M15826.3,8544.4c-151.5,112.3-263.2,158.3-608.3,278.2c196-22.6,398.1-85.7,608.3-186.1V8544.4z"/>
	<path class="st12" d="M15826.3,134.9c-91.9,30.3-183.9,60.7-275.8,91c93.4-3.9,184.5-16.7,275.8-28.1V134.9z"/>
	<path class="st12" d="M11201.1,7267.3c-317.2,163.7-669,246-1050.1,253.7C10523.9,7495.3,10874.8,7414.8,11201.1,7267.3z"/>
	<path class="st2" d="M15826.3,5901.6h-171.4c-0.8,4.9-1.5,9.9-2.3,14.8c57.5,9.8,115.1,19.7,173.6,29.6V5901.6z"/>
</g>
</svg>
