<?xml version="1.0" encoding="utf-8"?>
<!-- Generator: Adobe Illustrator 24.2.0, SVG Export Plug-In . SVG Version: 6.00 Build 0)  -->
<svg version="1.1" xmlns="http://www.w3.org/2000/svg" xmlns:xlink="http://www.w3.org/1999/xlink" x="0px" y="0px"
	 viewBox="0 0 1200 1200" style="enable-background:new 0 0 1200 1200;" xml:space="preserve">
<style type="text/css">
	.st0{fill:none;stroke:#231F20;stroke-width:2;stroke-linecap:round;stroke-linejoin:round;stroke-miterlimit:10;}
	.st1{fill:none;stroke:#8E3E63;stroke-width:2;stroke-linecap:round;stroke-linejoin:round;stroke-miterlimit:10;}
	
	.st2{fill:none;stroke:#231F20;stroke-width:2;stroke-linecap:round;stroke-linejoin:round;stroke-miterlimit:10;stroke-dasharray:12;}
	.st3{fill:none;stroke:#000000;stroke-width:2;stroke-linecap:round;stroke-linejoin:round;stroke-miterlimit:10;}
	.st4{fill:none;stroke:#231F20;stroke-width:2;stroke-linecap:round;stroke-linejoin:round;}
	.st5{fill:none;stroke:#231F20;stroke-width:2;stroke-linecap:round;stroke-linejoin:round;stroke-dasharray:13.2771,13.2771;}
</style>
<g id="Layer_1">
</g>
<g id="Layer_2">
	<path class="st0" d="M63,499c11.9-11.9,27,3.2,38.9-8.7c11.9-11.9-3.2-26.9,8.8-38.8c11.9-11.9,27,3.2,38.9-8.7
		c11.9-11.9-3.2-26.9,8.8-38.8s27,3.2,38.9-8.7"/>
	<path class="st0" d="M883,1045.8c16.8,0,16.8,21.3,33.7,21.3c16.8,0,16.8-21.3,33.7-21.3c16.8,0,16.8,21.3,33.7,21.3
		c16.9,0,16.9-21.3,33.7-21.3s16.9,21.3,33.7,21.3"/>
	<path class="st0" d="M381.6,1174.2c16.8,0,16.8,21.3,33.7,21.3c16.8,0,16.8-21.3,33.7-21.3c16.8,0,16.8,21.3,33.7,21.3
		c16.9,0,16.9-21.3,33.7-21.3c16.9,0,16.9,21.3,33.7,21.3"/>
	<path class="st0" d="M1031.5,33.8c16.8,0,16.8,21.3,33.7,21.3c16.8,0,16.8-21.3,33.7-21.3c16.8,0,16.8,21.3,33.7,21.3
		c16.9,0,16.9-21.3,33.7-21.3s16.9,21.3,33.7,21.3"/>
	<path class="st1" d="M297.4,354c16.8,0,16.8,21.3,33.7,21.3c16.8,0,16.8-21.3,33.7-21.3c16.8,0,16.8,21.3,33.7,21.3
		c16.9,0,16.9-21.3,33.7-21.3s16.9,21.3,33.7,21.3"/>
	<polyline class="st0" points="164.6,669.4 203.5,660.6 212.3,621.8 251.2,613 259.9,574.2 298.8,565.5 	"/>
	<polyline class="st0" points="713.9,272.1 747.6,293.4 781.3,272.1 815,293.4 848.7,272.1 882.4,293.4 	"/>
	<polyline class="st2" points="783,300.1 816.7,321.4 850.4,300.1 884.1,321.4 917.8,300.1 951.5,321.4 	"/>
	<polyline class="st1" points="28,1163.1 66.9,1154.4 75.6,1115.6 114.5,1106.8 123.3,1068 162.2,1059.2 	"/>
	<polyline class="st2" points="96.6,1134.2 135.5,1125.4 144.3,1086.6 183.2,1077.9 192,1039 230.9,1030.3 	"/>
	<polyline class="st0" points="832.7,736.2 866.4,757.5 900.1,736.2 933.8,757.5 	"/>
	<polyline class="st0" points="866.4,786.5 900.1,765.2 933.8,786.5 	"/>
	<polyline class="st0" points="568.9,239.7 602.6,218.4 636.3,239.7 	"/>
	<polyline class="st0" points="1131.9,401.1 1165.6,379.8 1199.3,401.1 	"/>
	<polyline class="st0" points="1069,1138 1102.7,1159.3 1136.4,1138 1170.1,1159.3 	"/>
	<polyline class="st0" points="1102.7,1188.3 1136.4,1167 1170.1,1188.3 	"/>
	<polyline class="st1" points="6.6,620.7 40.3,642 74,620.7 107.7,642 	"/>
	<polyline class="st0" points="40.3,671 74,649.7 107.7,671 	"/>
	<polyline class="st0" points="571.7,1030.2 610.6,1021.4 619.3,982.6 658.2,973.9 	"/>
	<polyline class="st1" points="631.1,1042 639.9,1003.1 678.8,994.4 	"/>
	<polyline class="st0" points="1082.3,241.1 1121.3,232.4 1130,193.5 1168.9,184.8 	"/>
	<polyline class="st1" points="1141.8,252.9 1150.6,214 1189.5,205.3 	"/>
	<polyline class="st1" points="210.1,787.8 243.8,809 277.5,787.8 311.2,809 	"/>
	<polyline class="st0" points="243.6,974.2 277.3,952.9 311,974.2 	"/>
	<polyline class="st0" points="900.1,93 933.8,71.7 967.5,93 	"/>
	<g>
		<line class="st0" x1="371.4" y1="859.2" x2="371.4" y2="901.2"/>
		<line class="st0" x1="392.5" y1="880.2" x2="350.4" y2="880.2"/>
	</g>
	<g>
		<line class="st0" x1="451.5" y1="252.6" x2="451.5" y2="294.6"/>
		<line class="st0" x1="472.6" y1="273.6" x2="430.5" y2="273.6"/>
	</g>
	<g>
		<line class="st0" x1="1126.1" y1="725.8" x2="1126.1" y2="767.9"/>
		<line class="st0" x1="1147.2" y1="746.9" x2="1105.1" y2="746.9"/>
	</g>
	<g>
		<line class="st1" x1="783" y1="397" x2="783" y2="439"/>
		<line class="st1" x1="804" y1="418" x2="762" y2="418"/>
	</g>
	<g>
		<line class="st1" x1="180.8" y1="544.5" x2="180.8" y2="586.5"/>
		<line class="st1" x1="201.9" y1="565.5" x2="159.8" y2="565.5"/>
	</g>
	<g>
		<line class="st3" x1="104.9" y1="174.6" x2="104.9" y2="216.6"/>
		<line class="st3" x1="126" y1="195.6" x2="83.9" y2="195.6"/>
	</g>
	<ellipse class="st0" cx="371.4" cy="997.4" rx="17.1" ry="17.1"/>
	<ellipse class="st0" cx="243.6" cy="440.9" rx="17.1" ry="17.1"/>
	<g>
		<line class="st1" x1="37.5" y1="1040.5" x2="37.5" y2="1082.5"/>
		<line class="st1" x1="58.5" y1="1061.5" x2="16.4" y2="1061.5"/>
	</g>
	<ellipse class="st0" cx="104.9" cy="995.1" rx="17.1" ry="17.1"/>
	<g>
		<g>
			<g>
				<polyline class="st4" points="274.4,254.5 271.2,249 268,254.5 				"/>
				<line class="st5" x1="260.9" y1="266.8" x2="250.3" y2="285.1"/>
				<polyline class="st4" points="246.8,291.3 243.6,296.8 250,296.8 				"/>
				<line class="st5" x1="264.1" y1="296.8" x2="285.4" y2="296.8"/>
				<polyline class="st4" points="292.4,296.8 298.8,296.8 295.6,291.3 				"/>
				<line class="st5" x1="288.6" y1="279" x2="277.9" y2="260.7"/>
			</g>
		</g>
	</g>
	<polygon class="st2" points="1168.9,516.1 1141.3,563.9 1196.5,563.9 	"/>
	<g>
		<line class="st1" x1="763.1" y1="822.9" x2="733.3" y2="852.6"/>
		<line class="st1" x1="763.1" y1="852.6" x2="733.3" y2="822.9"/>
	</g>
	<ellipse class="st1" cx="653.1" cy="1113.8" rx="17.1" ry="17.1"/>
	<ellipse class="st3" cx="739.5" cy="165.7" rx="17.1" ry="17.1"/>
	<polyline class="st0" points="245.3,82.1 284.2,73.4 292.9,34.5 331.8,25.8 	"/>
	<polyline class="st1" points="304.7,93.9 313.5,55 352.4,46.3 	"/>
	<ellipse class="st1" cx="326.7" cy="165.7" rx="17.1" ry="17.1"/>
	<polyline class="st0" points="913.7,453.8 952.6,445.1 961.3,406.2 1000.2,397.5 	"/>
	<polyline class="st1" points="973.1,465.6 981.9,426.7 1020.8,418 	"/>
	<ellipse class="st1" cx="995.1" cy="537.4" rx="17.1" ry="17.1"/>
	<polygon class="st1" points="450.5,1058 400.9,1071.3 437.2,1107.6 	"/>
	<polygon class="st1" points="95.9,384.6 46.3,397.8 82.6,434.1 	"/>
	<polygon class="st1" points="833.8,35.7 784.1,49 820.5,85.3 	"/>
	<rect x="797.3" y="920.9" class="st0" width="36.5" height="36.5"/>
	<rect x="881.8" y="1156" class="st1" width="36.5" height="36.5"/>
	<polygon class="st3" points="522.3,946.7 496.5,972.4 470.7,946.7 496.5,920.9 	"/>
	<polygon class="st3" points="663.8,25.8 638,51.6 612.2,25.8 638,0 	"/>
	<polygon class="st3" points="51.6,30 25.8,55.8 0,30 25.8,4.2 	"/>
	<polygon class="st3" points="286.5,1174.2 260.7,1200 234.9,1174.2 260.7,1148.4 	"/>
	<rect x="345.1" y="721" class="st1" width="36.5" height="36.5"/>
	<polygon class="st1" points="995.1,190.7 969.2,164.9 995.1,139.2 1020.9,164.9 	"/>
	<g>
		<rect x="1051.8" y="902.4" class="st0" width="61.1" height="61"/>
		<polygon class="st2" points="1126.1,891.2 1065,891.2 1051.8,902.4 1112.9,902.4 		"/>
		<polygon class="st2" points="1126.1,952.2 1126.1,891.2 1112.9,902.4 1112.9,963.5 		"/>
	</g>
	<g>
		<rect x="25.8" y="811.3" class="st3" width="61.1" height="61"/>
		<polygon class="st3" points="100.1,800 39,800 25.8,811.3 87,811.3 		"/>
		<polygon class="st3" points="100.1,861 100.1,800 87,811.3 87,872.3 		"/>
	</g>
	<g>
		<rect x="493.5" y="104.3" class="st1" width="61.1" height="61"/>
		<polygon class="st1" points="567.8,93 506.7,93 493.5,104.3 554.6,104.3 		"/>
		<polygon class="st1" points="567.8,154 567.8,93 554.6,104.3 554.6,165.3 		"/>
	</g>
	<path class="st0" d="M584.3,396.7c16.8,0,16.8,21.3,33.7,21.3c16.8,0,16.8-21.3,33.7-21.3c16.8,0,16.8,21.3,33.7,21.3
		c16.9,0,16.9-21.3,33.7-21.3s16.9,21.3,33.7,21.3"/>
	<polyline class="st0" points="516.1,547.4 555,538.7 563.8,499.8 602.7,491.1 	"/>
	<polyline class="st1" points="575.6,559.2 584.3,520.3 623.2,511.6 	"/>
	<polyline class="st0" points="363.1,475.1 396.8,453.8 430.5,475.1 	"/>
	<polygon class="st1" points="382.6,623.9 356.8,598.1 382.6,572.4 408.5,598.1 	"/>
	<polyline class="st0" points="623.7,794.9 662.6,786.2 671.3,747.3 710.2,738.6 	"/>
	<polyline class="st1" points="683.1,806.7 691.9,767.9 730.8,759.1 	"/>
	<ellipse class="st1" cx="530.7" cy="795.8" rx="17.1" ry="17.1"/>
	<polygon class="st3" points="927.8,603.2 902,629 876.2,603.2 902,577.5 	"/>
	<path class="st0" d="M499.2,737.4c11.9-11.9,27,3.2,38.9-8.7c11.9-11.9-3.2-26.9,8.8-38.8c11.9-11.9,27,3.2,38.9-8.7
		c11.9-11.9-3.2-26.9,8.8-38.8c11.9-11.9,27,3.2,38.9-8.7"/>
	<g>
		<rect x="713.9" y="528.7" class="st1" width="61.1" height="61"/>
		<polygon class="st1" points="788.2,517.4 727.1,517.4 713.9,528.7 775,528.7 		"/>
		<polygon class="st1" points="788.2,578.4 788.2,517.4 775,528.7 775,589.7 		"/>
	</g>
</g>
<g id="Layer_3">
</g>
</svg>
